<svg xmlns="http://www.w3.org/2000/svg" fill="none" viewBox="0 0 24 24"><path fill="#e5352b" d="M12 24.007q-2.485 0-4.66-.944a12.2 12.2 0 0 1-3.83-2.577 12.1 12.1 0 0 1-2.578-3.82Q0 14.493 0 12.006q0-2.485.932-4.659A12.116 12.116 0 0 1 7.34.94Q9.515.007 12 .007t4.66.932a12 12 0 0 1 3.82 2.588 12.1 12.1 0 0 1 2.577 3.82Q24 9.522 24 12.007t-.943 4.66a12.08 12.08 0 0 1-6.397 6.396q-2.175.944-4.66.944m0-2.635a9.1 9.1 0 0 0 3.636-.725 9.3 9.3 0 0 0 2.98-2.013 9.6 9.6 0 0 0 2.013-2.992 9.1 9.1 0 0 0 .736-3.635 9 9 0 0 0-.736-3.636 9.4 9.4 0 0 0-2.014-2.991 9.3 9.3 0 0 0-2.98-2.014A9.1 9.1 0 0 0 12 2.642a9.2 9.2 0 0 0-3.647.724A9.42 9.42 0 0 0 3.36 8.371a9.1 9.1 0 0 0-.725 3.636q0 1.932.725 3.636a9.424 9.424 0 0 0 4.993 5.005 9.2 9.2 0 0 0 3.647.724m-2.865-4.89a1.13 1.13 0 0 1-.828.334q-.46 0-.794-.322a1.12 1.12 0 0 1-.322-.806q0-.448.333-.793l7.352-7.318q.323-.333.806-.333.471 0 .794.322.321.323.322.794 0 .449-.334.782zm5.73 0-7.34-7.34a1.07 1.07 0 0 1-.334-.782q0-.473.322-.794.333-.322.794-.322.495 0 .817.333l7.34 7.318q.334.345.334.793 0 .472-.322.806-.323.322-.794.322-.484 0-.817-.334"/></svg>