<svg xmlns="http://www.w3.org/2000/svg" fill="currentColor" viewBox="0 0 24 24"><path d="M4.871 11.158q-.928 0-1.396-.468-.47-.48-.47-1.446V4.88q0-.967.47-1.436.469-.468 1.396-.468h4.453q.928 0 1.397.468t.469 1.436v4.365q0 .967-.47 1.446-.468.468-1.396.468zm.02-1.377h4.404q.255 0 .38-.136.137-.138.137-.4V4.878q0-.264-.136-.39-.128-.138-.381-.137H4.89q-.255 0-.381.136-.127.127-.127.39v4.366q0 .264.127.4.126.137.38.137m1.367-1.69q-.195 0-.195-.224v-1.62q0-.216.195-.216h1.67q.195 0 .195.215v1.621q0 .225-.195.225zm8.418 3.067q-.938 0-1.406-.468-.47-.48-.47-1.446V4.88q0-.967.47-1.436.467-.468 1.406-.468h4.443q.928 0 1.397.468t.468 1.436v4.365q0 .967-.468 1.446-.469.468-1.397.468zm.02-1.377H19.1q.263 0 .38-.136.127-.138.127-.4V4.878q0-.264-.127-.39-.117-.138-.38-.137h-4.405q-.263 0-.39.136-.127.127-.127.39v4.366q0 .264.127.4.127.137.39.137m1.415-1.69q-.185 0-.185-.224v-1.62q0-.216.185-.216h1.67q.205 0 .205.215v1.621q0 .225-.205.225zM4.871 20.954q-.928 0-1.396-.469-.47-.468-.47-1.435v-4.375q0-.957.47-1.426.469-.478 1.396-.478h4.453q.928 0 1.397.478.468.47.469 1.426v4.375q0 .966-.47 1.435-.468.47-1.396.47zm.02-1.377h4.404q.255 0 .38-.137.137-.126.137-.39v-4.365q0-.274-.136-.4-.128-.138-.381-.138H4.89q-.255 0-.381.137-.127.127-.127.4v4.366q0 .264.127.39.126.138.38.137m1.367-1.68q-.195 0-.195-.234v-1.611q0-.215.195-.215h1.67q.195 0 .195.215v1.611q0 .235-.195.235zm7.207-2.597q-.195 0-.195-.225v-1.62q0-.216.195-.216h1.67q.195 0 .195.215v1.621q0 .225-.195.225zm5.185 0q-.195 0-.195-.225v-1.62q0-.216.195-.216h1.67q.195 0 .196.215v1.621q0 .225-.196.225zm-2.568 2.598q-.195 0-.195-.235v-1.611q0-.215.195-.215h1.67q.195 0 .195.215v1.611q0 .235-.195.235zm-2.617 2.587q-.195 0-.195-.224v-1.621q0-.215.195-.215h1.67q.195 0 .195.215v1.62q0 .225-.195.225zm5.185 0q-.195 0-.195-.224v-1.621q0-.215.195-.215h1.67q.195 0 .196.215v1.62q0 .225-.196.225z"/></svg>