<svg xmlns="http://www.w3.org/2000/svg" fill="currentColor" viewBox="0 0 24 24"><path stroke="currentColor" stroke-width="1.5" d="M20.073 4.25c.128-.002.302.012.486.056.134.032.305.088.474.188l.168.116.131.122c.276.292.345.63.371.784.03.172.065.535.035.85-.253 2.658-1.338 9.05-1.886 11.983-.246 1.313-.822 2.217-1.802 2.307-.703.065-1.288-.176-1.773-.46a10 10 0 0 1-.687-.457c-.223-.158-.428-.306-.646-.449-.735-.482-1.31-.873-1.876-1.259s-1.121-.764-1.824-1.227c-.448-.296-.814-.62-1.017-1.01a1.44 1.44 0 0 1-.042-1.278c.149-.338.404-.62.615-.834.111-.114.231-.229.343-.336q.171-.165.33-.328c.083-.086.53-.5 1.104-1.036q-1.287.863-2.988 2.012h-.001c-.729.498-1.48.808-2.233.792-.386-.008-.89-.112-1.358-.23-.486-.121-1-.275-1.434-.416-.46-.15-1.017-.306-1.406-.495a1.8 1.8 0 0 1-.63-.47 1.2 1.2 0 0 1-.267-.93l.033-.165c.102-.368.372-.628.6-.798.281-.208.648-.39 1.067-.557q7.23-3.15 9.655-4.16c2.299-.956 3.705-1.524 4.616-1.855.899-.326 1.396-.452 1.842-.46Z"/></svg>